<svg xmlns="http://www.w3.org/2000/svg" viewBox="0 0 1200 1200"><path fill="#fbfbfb" stroke="#fbfbfb" d="M567.5 68.593c-2.2.209-9.625.854-16.5 1.435C321.414 89.412 124.733 257.339 68.486 482c-12.167 48.596-15.895 79.808-15.948 133.5-.04 39.78.523 48.776 5.026 80.288C91.622 934.163 281.646 1124.674 520 1159.408c49.859 7.266 110.776 7.27 161 .013 237.888-34.377 428.395-225.377 462.436-463.633 7.275-50.916 7.265-109.745-.028-159.788-32.989-226.376-206.696-410.314-431.448-456.858-37.393-7.744-62.292-10.253-105.46-10.626-19.25-.166-36.8-.132-39 .077m8 24.004c-115.689 7.145-215.153 44.78-302.53 114.471C147.884 306.835 76.453 455.946 76.592 617c.123 141.086 53.482 270.045 152.899 369.522C352.457 1109.565 523.254 1163.081 695 1132.381c127.813-22.847 246.04-96.081 325.13-201.396 94.803-126.241 127.481-289.575 88.725-443.485C1051.067 258.009 845.279 95.747 608 92.58c-14.575-.194-29.2-.187-32.5.017m-7 45.031C431.342 148.466 310.352 214.365 226.322 324c-53.975 70.422-86.851 153.467-97.98 247.5-4.297 36.301-2.279 96.01 4.628 136.987 33.998 201.689 191.258 362.337 387.53 395.879 51.456 8.794 107.544 8.794 159 0 196.271-33.542 353.532-194.191 387.53-395.879 6.907-40.977 8.925-100.686 4.628-136.987-14.045-118.668-62.103-218.608-143.818-299.076C851.194 196.947 759.77 153.029 651 139.437c-11.984-1.497-70.269-2.776-82.5-1.809M724 405.58c0 .869-.72 7.056-1.601 13.75-.88 6.693-3.267 25.352-5.303 41.464l-3.701 29.294 5.473-.294c5.358-.288 5.524-.388 7.912-4.794 7.202-13.288 17.063-25.419 25.22-31.028 1.925-1.323 4.033-2.922 4.685-3.552 2.327-2.252 19.931-10.245 26.315-11.949 4.67-1.246 11.924-1.868 25.766-2.209l19.265-.475-.265 153.857L827.5 743.5l-2.319 5.743c-2.884 7.141-9.694 16.299-15.064 20.257-3.933 2.899-4.071 3.193-4.093 8.75L806 784h130v-5.322c0-5.27-.062-5.377-6.25-10.874-3.437-3.053-7.693-7.971-9.458-10.928-6.649-11.144-6.292-1.564-6.292-169.086V436h16.042c17.987 0 27.11 1.427 38.73 6.059 19.478 7.763 38.46 25.559 46.63 43.714 1.899 4.221 1.91 4.227 7.361 4.227h5.46l-.58-3.25c-.318-1.788-2.614-19.45-5.102-39.25-2.488-19.8-4.792-37.687-5.12-39.75l-.597-3.75H870.412c-132.77 0-146.412.147-146.412 1.58m-529.939 86.17c.056 4.392.393 5.014 4.474 8.25 5.626 4.461 12.015 13.747 13.956 20.282 1.314 4.424 1.506 22.819 1.485 142.15l-.023 137.068-2.4 5.835c-3.275 7.966-7.173 13.346-12.746 17.59-4.519 3.443-4.695 3.769-4.75 8.825L194 837h88.826c112.683 0 121.307-.784 148.982-13.552 42.074-19.411 61.903-65.015 47.34-108.875-3.021-9.098-5.093-10.654-7.149-5.369-1.452 3.732-5.413 13.324-7.969 19.296-6.315 14.755-4.011 28.385 5.966 35.284 3.715 2.568 3.93 3.001 3.966 7.966L474 777h-78.606l-4.238 6.009c-5.18 7.345-12.38 13.205-21.685 17.647-11.558 5.518-17.57 6.307-48.221 6.327L294 807V675.8l29.25.472c32.053.517 35.334 1.002 47.75 7.058 23.558 11.49 37.035 41.752 31.696 71.17-.799 4.4-1.384 8.085-1.302 8.189.809 1.018 8.5-4.489 14.166-10.143 8.881-8.864 10.02-10.974 21.356-39.577 5.116-12.908 10.088-25.269 11.049-27.469 4.164-9.532 3.441-10.733-10.781-17.916-6.506-3.286-6.33-3.975 2.39-9.365 17.257-10.666 35.314-11.398 49.79-2.019 6.784 4.396 6.949 4.426 10.523 1.881 13.744-9.787 33.537-7.162 45.477 6.032 6.844 7.563 16.57 26.953 16.621 33.137.008.962.465 1.75 1.015 1.75.55 0 1-.655 1-1.455 0-2.55 6.201-14.764 11.87-23.378 16.777-25.498 36.277-33.158 57.712-22.671 6.288 3.077 5.69 3.096 10.738-.349 16.467-11.237 39.717-9.668 53.92 3.64 3.891 3.646 3.95 2.948.75-8.795-8.772-32.19-22.841-57.884-42.459-77.538-8.286-8.302-22.869-18.718-25.525-18.23-.828.152-3.756 4.655-6.506 10.007-10.345 20.134-18.547 28.269-28.5 28.269-10.328 0-14.341-5.271-9.957-13.076 5.194-9.248 8.924-26.424 5.738-26.424-.67 0-3.537 2.29-6.37 5.088l-5.152 5.088-6.039-1.694c-7.636-2.143-21.166-1.743-26.099.771l-3.379 1.722-6.076-4.567c-5.729-4.306-6.155-4.463-7.45-2.738-2.202 2.934-.856 9.581 3.745 18.49 7.997 15.485.074 24.037-15.491 16.721-9.132-4.293-23.673-20.393-27.494-30.444-1.977-5.2-5.41-4.221-15.668 4.469-8.402 7.118-8.308 7.087-8.308 2.754 0-5.532-3.69-18.202-7.545-25.909-14.077-28.14-43.424-45.355-86.429-50.698-5.337-.663-40.227-1.053-94.25-1.053H194l.061 4.75M294 581.502v65.743l21.25-.548c30.862-.796 41.578-4.277 55.178-17.924 22.58-22.659 24.753-63.712 4.767-90.072-12.157-16.036-27.012-21.638-59.445-22.419l-21.75-.524v65.744m125.5 71.052c-7.494 4.026-7.842 4.356-5.5 5.204 1.375.499 5.327 1.942 8.783 3.208 3.455 1.266 6.419 2.129 6.586 1.918.583-.735-.599-14.883-1.232-14.756-.35.07-4.237 2.062-8.637 4.426" fill-rule="evenodd"/><path fill="#fa0505" stroke="#fa0505" d="M575 68.584c-33.99 2.267-55.885 4.964-81 9.979C206.465 135.971 15.314 407.392 58.107 697.5 101.771 993.516 375.209 1198.82 674 1159.926c172.184-22.413 326.346-129.184 409.487-283.606 59.988-111.419 79.665-242.591 54.952-366.32C1092.971 282.363 909.982 107.803 681.5 74.107c-29.766-4.39-82.491-7.124-106.5-5.523m-14 24.554C255.25 115.906 33.386 397.627 82.512 700.718 119.606 929.575 304.521 1108.269 534 1137.015c314.403 39.386 590.992-204.22 590.992-520.515 0-305.288-259.443-546.04-563.992-523.362m8 44.988C289.67 156.871 86.958 419.711 132.577 704c39.313 244.992 255.276 421.768 495.94 405.949 284.024-18.668 487.577-284.515 437.918-571.935C1024.421 294.843 809.407 121.993 569 138.126m154.539 268.121c-.304 1.789-2.142 15.853-4.084 31.253-1.943 15.4-4.19 33.086-4.994 39.301-.803 6.216-1.461 11.728-1.461 12.25 0 .522 2.587.946 5.75.942l5.75-.006 4.687-8.244C747.006 450.405 773.74 436 814.085 436h12.94l-.263 154.75-.262 154.75-3.287 6.942c-2.43 5.13-5.234 8.833-10.75 14.189-7.346 7.135-7.463 7.328-7.463 12.309V784h132v-5.443c0-4.517-.383-5.709-2.25-7.003-10.379-7.192-17.988-19.221-19.714-31.164-.626-4.325-1.004-62.309-1.016-155.773L914 435.734l18.25.534c39.267 1.148 66.094 16.637 81.376 46.982l3.399 6.75h5.488c6.709 0 6.691 5.595.147-45.5l-5.25-41-146.659-.253-146.659-.254-.553 3.254M194 491.35c0 5.289.068 5.409 5.964 10.537 4.502 3.916 6.891 7.065 9.75 12.848l3.786 7.66.273 136.053c.178 88.696-.077 137.698-.735 140.781-1.733 8.129-5.154 14.013-12.226 21.027-6.605 6.551-6.812 6.909-6.812 11.75V837h92.449c76.272 0 94.426-.261 103.75-1.493 58.232-7.693 93.751-42.352 93.78-91.507.01-16.645-5.298-38.5-9.35-38.5-2.936 0-14.629 30.05-14.629 37.594 0 9.312 4.489 18.689 10.483 21.897 2.208 1.182 2.517 2.004 2.517 6.7v5.353l-39.084-.067-39.084-.067-2.975 4.492c-4.438 6.7-13.61 14.691-20.969 18.269-12.508 6.081-15.606 6.54-47.638 7.057L294 807.2V677h27.84c38.304 0 48.859 2.837 63.249 17 14.758 14.524 21.792 41.873 16.527 64.25-1.525 6.477-1.453 6.554 3.384 3.618 16.759-10.171 18.04-12.489 46.654-84.449.453-1.138-7.314-6.675-14.521-10.351-5.348-2.729-5.018-3.666 2.942-8.345 18.137-10.663 37.852-10.366 52.521.789 3.024 2.3 3.162 2.313 6.005.584 25.58-15.555 50.734-2.152 60.814 32.404a883.08 883.08 0 0 0 2.136 7.25c.774 2.504 2.131 1.128 4.44-4.5 12.806-31.22 32.66-49.044 52.319-46.97 6.301.665 14.222 3.27 17.926 5.896l2.735 1.94 4.466-3.073c16.881-11.614 36.553-11.094 52.921 1.4 5.135 3.92 7.046 4.471 6.262 1.807-.283-.962-1.24-4.675-2.126-8.25-4.993-20.136-19.244-51.982-28.273-63.18-12.269-15.216-23.415-25.711-34.466-32.453-7.576-4.623-8.602-4.152-13.645 6.261-11.371 23.478-23.485 33.367-34.13 27.862-5.373-2.779-5.458-4.398-.798-15.208 5.154-11.956 6.612-23.282 2.998-23.282-1.126 0-4.363 2.256-7.193 5.013l-5.146 5.012-4.671-1.589c-8.078-2.748-16.812-2.948-23.888-.546-7.738 2.626-7.121 2.67-11.192-.809-7.524-6.431-9.679-6.386-10.752.223-.717 4.417 1.574 11.898 5.695 18.595 3.284 5.338 3.525 6.782 1.772 10.629-5.104 11.203-24.762 2.05-38.231-17.8-3.07-4.525-5.581-8.721-5.578-9.323.002-.602-.843-1.862-1.878-2.799-2.836-2.566-6.027-1.242-14.499 6.016l-7.517 6.44-.635-3.781c-7.463-44.394-42.405-70.903-100.467-76.221-6.926-.634-43.818-1.055-92.75-1.057L194 486v5.35m100 90.056V646h20.34c23.44 0 30.738-1.311 42.96-7.718 40.05-20.994 41.54-90.024 2.433-112.725-11.788-6.843-17.056-7.875-42.483-8.329l-23.25-.415v64.593m125.673 71.555-6.827 3.715 7.327 2.667c4.03 1.467 7.552 2.665 7.827 2.664.275-.002.349-2.929.165-6.505-.185-3.576-.635-6.447-1-6.379-.366.068-3.737 1.795-7.492 3.838" fill-rule="evenodd"/><path fill="#040404" stroke="#040404" d="M575 69.081C421.007 75.496 274.912 149.045 175.904 270c-205.26 250.76-147.82 625.479 123.292 804.316 275.844 181.959 649.184 79.153 794.377-218.746 151.459-310.755-21.738-683.934-357.443-770.169-41.018-10.537-107.068-18.685-139.63-17.225-1.65.074-11.325.481-21.5.905m1 22.947C287.34 105.642 63.929 349.744 76.076 638.252 89.727 962.488 389.502 1195.981 708 1130.454c234.398-48.224 407.309-252.41 416.952-492.368C1137.332 330.032 883.487 77.525 576 92.028m1.5 45.989C324.972 150.191 126.756 363.904 126.756 624c0 311.468 280.059 542.241 576.401 474.964 248.368-56.385 409.039-306.953 362.272-564.964C1022.32 296.177 813.422 126.644 577.5 138.017M687 391.576c-15.019 1.688-30.11 5.415-40.651 10.041-1.733.761-3.45 1.383-3.814 1.383-.365 0-3.123 1.125-6.129 2.5-3.006 1.375-5.633 2.5-5.837 2.5-.205 0-10.136 4.05-22.069 9l-21.697 9H528v4.86c0 3.598.682 5.866 2.625 8.729 8.756 12.902 8.066 19.002-6.203 54.835-6.368 15.992-12.169 30.426-12.891 32.076-.722 1.65-4.13 10.2-7.572 19-7.441 19.025-7.154 18.612-9.431 13.563-4.068-9.022-6.793-8.832-18.747 1.309l-6.565 5.57-1.232-6.721c-6.701-36.554-36.067-61.335-83.484-70.449-10.59-2.035-14.36-2.128-101.25-2.492l-90.25-.378.05 5.299c.048 5.128.209 5.428 5.013 9.299 5.625 4.533 11.039 11.867 13.66 18.5 2.431 6.156 2.787 275.022.374 283.331-2.021 6.962-8.188 15.943-13.976 20.353-4.867 3.709-5.009 3.963-5.064 9.066L193 837l94.75-.006c101.077-.006 103-.085 122.47-5.045 36.342-9.258 62.792-33.302 71.449-64.949 4.155-15.192 2.093-44.783-4.13-59.25-.713-1.656 2.74-1.75 64.629-1.75h65.381l6.226 15.821c7.013 17.823 7.87 24.175 4.364 32.354-1.77 4.13-9.021 11.825-11.142 11.825-.548 0-.997 2.475-.997 5.5v5.5l66.25.001h66.25l-.129-5.13-.128-5.131-5.828-3.12C720.783 757.393 703 736.161 703 728.5c0-.384-.644-2.116-1.432-3.849-.788-1.733-3.31-8.101-5.606-14.151-8.688-22.9-14.237-37.143-16.068-41.239-1.042-2.332-1.894-4.7-1.894-5.264 0-.563-.435-1.806-.967-2.761-1.117-2.008-6.033-14.611-6.033-15.469 0-3.141 19.84 4.674 26.845 10.574 7.069 5.954 7.249 5.573 3.692-7.795-2.827-10.626-4.823-16.715-7.617-23.234-1.084-2.527-1.826-4.739-1.649-4.916.303-.303 5.894 4.067 16.767 13.104 8.605 7.152 19.832 16.411 22.101 18.226 1.219.976 4.275 3.609 6.789 5.852 2.515 2.243 5.594 4.767 6.843 5.609 1.249.842 3.949 3.073 6 4.958 2.051 1.885 4.751 4.135 6 5 1.249.865 3.949 3.099 6 4.964 2.051 1.865 5.427 4.659 7.502 6.209 2.075 1.55 4.775 3.814 6 5.03 1.225 1.217 3.176 2.873 4.336 3.682 1.16.808 4.217 3.359 6.794 5.668 9.781 8.764 25.331 12.538 36.847 8.944l2.75-.859v17.14c0 23.939-3.905 34.393-16.587 44.395-5.282 4.167-5.302 4.203-5.357 9.932L805 784h132l-.007-5.75c-.006-5.468-.182-5.869-3.572-8.178-5.515-3.757-11.392-10.927-14.811-18.072l-3.11-6.5-.262-154.903-.263-154.903 16.763.616c30.135 1.107 46.629 7.395 64.606 24.629 8.315 7.97 12.343 13.335 17.036 22.687l3.574 7.121 5.773-.124c4.49-.096 5.737-.456 5.609-1.623-.09-.825-2.551-20.512-5.469-43.75l-5.305-42.25H743.885l-4.193-2.338c-11.913-6.643-36.582-10.897-52.692-9.086m111 45.112c-2.475.187-7.769 1.041-11.764 1.897l-7.265 1.558 1.483 2.678c2.173 3.924 6.046 13.87 7.86 20.179 6.891 23.978 5.299 47.204-4.659 68-6.656 13.9-23.379 32.898-36.53 41.5-7.031 4.599-7.469 5.5-2.674 5.5 4.571 0 15.392 2.896 24.549 6.571 8.885 3.565 21.648 12.218 37.16 25.194 3.113 2.604 9.076 7.551 13.25 10.993l7.59 6.258V436l-12.25.175c-6.737.096-14.275.327-16.75.513m-161 3.299c-7.729 1.632-16.713 4.602-25.271 8.356a630.302 630.302 0 0 1-8.95 3.786c-4.778 1.98-5.63 2.701-5.167 4.371.7 2.52 12.057 31.918 13.967 36.151.781 1.733 1.421 3.423 1.421 3.755 0 .333 2.87 7.915 6.379 16.849 3.508 8.935 8.046 20.52 10.085 25.745l3.707 9.5 7.651 5c4.208 2.75 11.884 9.141 17.058 14.202l9.407 9.203 6.106-2.54c12.48-5.191 28.45-17.357 32.953-25.102 10.595-18.225 13.098-35.9 7.756-54.763-11.552-40.791-41.57-62.015-77.102-54.513M294 581.596v64.597l22.25-.418c24.75-.464 32.355-2.017 43.25-8.833 40.008-25.027 37.761-92.45-3.764-112.919-11.482-5.659-19.798-7.023-42.824-7.023H294v64.596m125.354 71.818-6.145 3.198 6.895 2.583 6.896 2.584v-5.89c0-6.775.38-6.652-7.646-2.475m34.146-.01c-4.691 1.49-13.81 6.013-17.803 8.83l-2.803 1.978 6.579 3.844c3.618 2.115 7.884 4.774 9.48 5.911l2.902 2.066.684-2.267c.376-1.246 1.28-3.616 2.01-5.266 2.487-5.627 6.451-15.438 6.451-15.97 0-.861-3.216-.486-7.5.874M294 742.121v65.12l28.25-.497c31.325-.551 38.085-1.608 49.626-7.758 12.287-6.55 24.124-20.314 24.124-28.054 0-2.713.7-4.541 2.382-6.223 8.328-8.328 5.159-44.513-5.279-60.287C378.357 682.139 364.76 677 320.542 677H294v65.121" fill-rule="evenodd"/></svg>