<?xml version="1.0" encoding="iso-8859-1"?>
<!-- Uploaded to: SVG Repo, www.svgrepo.com, Generator: SVG Repo Mixer Tools -->
<svg version="1.1" id="Layer_1" xmlns="http://www.w3.org/2000/svg" xmlns:xlink="http://www.w3.org/1999/xlink" 
	 viewBox="0 0 300 300" xml:space="preserve">
<g>
	<rect x="40" y="220" style="fill:#005ECE;" width="40" height="80"/>
	<rect x="40" y="110" style="fill:#005ECE;" width="40" height="80"/>
	<rect x="40" style="fill:#005ECE;" width="40" height="80"/>
	<rect y="220" style="fill:#2488FF;" width="40" height="80"/>
	<rect y="110" style="fill:#2488FF;" width="40" height="80"/>
	<rect style="fill:#2488FF;" width="40" height="80"/>
	<rect x="260" y="220" style="fill:#005ECE;" width="40" height="80"/>
	<rect x="260" y="110" style="fill:#005ECE;" width="40" height="80"/>
	<rect x="260" style="fill:#005ECE;" width="40" height="80"/>
	<rect x="220" y="220" style="fill:#2488FF;" width="40" height="80"/>
	<rect x="220" y="110" style="fill:#2488FF;" width="40" height="80"/>
	<rect x="220" style="fill:#2488FF;" width="40" height="80"/>
	<rect x="150" y="220" style="fill:#005ECE;" width="40" height="80"/>
	<rect x="150" y="110" style="fill:#005ECE;" width="40" height="80"/>
	<rect x="150" style="fill:#005ECE;" width="40" height="80"/>
	<rect x="110" y="220" style="fill:#2488FF;" width="40" height="80"/>
	<rect x="110" y="110" style="fill:#2488FF;" width="40" height="80"/>
	<rect x="110" style="fill:#2488FF;" width="40" height="80"/>
</g>
</svg>